<?xml version="1.0" encoding="UTF-8"?>
<svg id="Calque_2" data-name="Calque 2" xmlns="http://www.w3.org/2000/svg" viewBox="0 0 181.19 19.52">
  <defs>
    <style>
      .cls-1 {
        letter-spacing: 0em;
      }

      .cls-2 {
        letter-spacing: 0em;
      }

      .cls-3 {
        font-family: Montserrat-ExtraBoldItalic, Montserrat;
        font-size: 12px;
        font-style: italic;
        font-weight: 700;
      }

      .cls-4 {
        fill: #f96400;
      }

      .cls-4, .cls-5, .cls-6, .cls-7, .cls-8, .cls-9, .cls-10, .cls-11, .cls-12, .cls-13, .cls-14, .cls-15 {
        stroke-width: 0px;
      }

      .cls-5 {
        fill: #f6f6f6;
      }

      .cls-6 {
        fill: #1d1d1b;
      }

      .cls-7 {
        fill: #1dc7fe;
      }

      .cls-8 {
        fill: #ee7500;
      }

      .cls-9 {
        fill: #f37702;
      }

      .cls-10 {
        fill: #fbfbfb;
      }

      .cls-11 {
        fill: #f27701;
      }

      .cls-12 {
        fill: #fcfcfc;
      }

      .cls-13 {
        fill: #f5f5f5;
      }

      .cls-14 {
        fill: #010101;
      }

      .cls-15 {
        fill: #020404;
      }
    </style>
  </defs>
  <g id="Calque_1-2" data-name="Calque 1">
    <g>
      <g id="Ax6rDi">
        <g>
          <path class="cls-7" d="m13.47,9.76c0,2.17,0,4.35,0,6.52,0,.18-.04.21-.21.21-4.35,0-8.7,0-13.05,0-.18,0-.21-.04-.21-.21,0-4.35,0-8.7,0-13.05,0-.18.04-.21.21-.21,4.35,0,8.7,0,13.05,0,.18,0,.22.04.21.21,0,2.17,0,4.35,0,6.52Zm-8.32,4.28c-.25.21-.45.44-.51.78-.03.15,0,.19.15.19.7-.01,1.39-.01,2.09-.02.22,0,.44,0,.66,0,.7,0,1.41,0,2.11.02.17,0,.17-.07.15-.2-.06-.32-.25-.55-.48-.76.51-.63.73-1.34.63-2.14-.14-1.09-.3-2.19-.45-3.28-.11-.77-.22-1.54-.33-2.31-.14-1.06-.96-1.8-1.98-1.77-1.03.02-1.81.77-1.93,1.84-.07.64-.18,1.27-.27,1.97-.38-.33-.73-.62-1.07-.92-.21-.19-.4-.17-.6.01-.53.47-.56,1.26-.07,1.79.25.26.48.54.76.76.57.46.7,1.03.56,1.73-.17.85.02,1.64.58,2.33Z"/>
          <path class="cls-15" d="m7.55,14.99c-.22,0-.44,0-.66,0-.07-.91-.86-1.34-1.74-.95-.56-.68-.74-1.48-.58-2.33.14-.7.01-1.27-.56-1.73-.28-.22-.52-.5-.76-.76-.49-.52-.46-1.32.07-1.79.21-.18.39-.2.6-.01.34.3.69.59,1.07.92.1-.69.2-1.33.27-1.97.12-1.06.9-1.82,1.93-1.84,1.02-.02,1.84.72,1.98,1.77.1.77.22,1.54.33,2.31.15,1.09.3,2.19.45,3.28.11.8-.12,1.51-.63,2.14-.95-.51-1.75.19-1.77.94Zm1.14-3.59c0-.7-.13-1.33-.5-1.88-.55-.81-1.4-.8-1.94.03-.28.44-.42.92-.46,1.43-.07.83.04,1.63.57,2.32.53.68,1.26.67,1.77-.02.42-.57.55-1.22.56-1.87Zm-.38-4.13c-.73-.38-1.45-.38-2.16,0,.54.68,1.56.69,2.16,0Zm-1.45-.95c-.03-.18-.1-.31-.3-.29-.2.02-.27.15-.26.33,0,.17.1.28.28.28.2,0,.26-.14.28-.31Zm1.31,0c-.02-.18-.09-.31-.29-.3-.2,0-.27.14-.26.32,0,.17.1.28.27.28.2,0,.27-.13.28-.31Z"/>
          <path class="cls-11" d="m7.55,14.99c.02-.75.82-1.45,1.77-.94.23.21.42.44.48.76.02.13.02.2-.15.2-.7-.01-1.41-.01-2.11-.02Z"/>
          <path class="cls-9" d="m5.15,14.03c.88-.39,1.67.04,1.74.95-.7,0-1.39,0-2.09.02-.15,0-.18-.04-.15-.19.06-.34.26-.57.51-.78Z"/>
          <path class="cls-12" d="m8.69,11.4c-.01.65-.14,1.31-.56,1.87-.51.69-1.25.7-1.77.02-.53-.68-.64-1.48-.57-2.32.04-.51.18-.99.46-1.43.54-.82,1.38-.84,1.94-.03.38.55.5,1.18.5,1.88Z"/>
          <path class="cls-8" d="m8.31,7.26c-.6.68-1.61.67-2.16,0,.71-.37,1.43-.37,2.16,0Z"/>
          <path class="cls-5" d="m6.86,6.31c-.02.17-.08.31-.28.31-.18,0-.27-.11-.28-.28,0-.18.06-.31.26-.33.2-.02.27.12.3.29Z"/>
          <path class="cls-13" d="m8.16,6.32c-.01.18-.09.31-.28.31-.18,0-.27-.11-.27-.28,0-.18.06-.31.26-.32.2,0,.27.12.29.3Z"/>
        </g>
      </g>
      <path class="cls-6" d="m52.69,2.31c-8.23,0-14.9,3.34-14.9,7.45s6.67,7.45,14.9,7.45,14.9-3.34,14.9-7.45-6.67-7.45-14.9-7.45Zm0,13.73c-7.58,0-13.73-2.81-13.73-6.27s6.15-6.27,13.73-6.27,13.73,2.81,13.73,6.27-6.15,6.27-13.73,6.27Zm-1.88-7.58v-1.18h4.21v1.18h-1.51v3.79h-1.18v-3.79h-1.51Zm9.28-1.18v4.97h-1.18l-2.13-2.96v2.96h-1.18v-4.97h1.18l2.13,2.96v-2.96h1.18Zm-14.83,4.97v-4.97h1.18l1.31,2.01,1.31-2.01h1.18v4.97h-1.18v-2.81l-.89,1.37h-.83l-.89-1.37v2.81h-1.17Z"/>
      <g>
        <path class="cls-14" d="m108.13,3.25v13.09s-.07.08-.08.13c-.18,1-.7,1.79-1.52,2.38-.49.36-1.07.51-1.64.66h-13.04c-.02-.06-.07-.07-.12-.08-1.71-.3-3.01-1.77-3.02-3.5-.02-4.12-.02-8.24,0-12.36,0-1.15.54-2.09,1.45-2.82C90.65.36,91.26.21,91.85,0,96.19,0,100.54,0,104.89,0c.03.02.05.06.09.07,1.02.14,1.82.65,2.44,1.47.39.51.55,1.11.71,1.71Zm-12.48,6.73s.06.03.09.04c0,.69,0,1.37,0,2.06,0,.66.42,1.11,1.02,1.13.62.02,1.11-.43,1.11-1.09.02-1.57.02-3.14,0-4.71,0-.69-.45-1.09-1.14-1.09-1.55,0-3.1,0-4.65,0-.65,0-1.1.44-1.11,1.04,0,.6.44,1.06,1.08,1.08.58.02,1.16,0,1.74,0,.11,0,.24-.05.41.13-.12.09-.26.16-.36.26-1.05,1.05-2.11,2.1-3.15,3.16-.51.52-.53,1.17-.06,1.62.47.44,1.06.4,1.57-.12,1.15-1.16,2.3-2.33,3.44-3.49Zm7.1,1.09l-.08-.12c.13-.11.28-.21.4-.33,1.03-1.03,2.07-2.06,3.09-3.1.5-.51.51-1.15.06-1.58-.47-.45-1.06-.42-1.57.09-.41.41-.82.82-1.23,1.24-.74.76-1.47,1.53-2.2,2.3-.04-.03-.08-.05-.12-.08,0-.71,0-1.42,0-2.13,0-.61-.42-1.03-1.01-1.04-.63-.01-1.09.38-1.09.99-.02,1.63-.01,3.25,0,4.88,0,.61.44,1.01,1.04,1.01,1.59,0,3.18,0,4.78,0,.28,0,.53-.08.73-.3.31-.33.42-.71.24-1.15-.19-.48-.57-.67-1.05-.68-.66-.01-1.32,0-1.98,0Z"/>
        <path class="cls-10" d="m95.64,9.98c-1.15,1.17-2.3,2.33-3.44,3.49-.51.51-1.1.56-1.57.12-.47-.45-.45-1.1.06-1.62,1.05-1.06,2.1-2.11,3.15-3.16.1-.1.23-.17.36-.26-.17-.18-.3-.12-.41-.13-.58,0-1.16.01-1.74,0-.64-.02-1.08-.47-1.08-1.08,0-.6.46-1.04,1.11-1.04,1.55,0,3.1,0,4.65,0,.69,0,1.13.4,1.14,1.09.02,1.57.02,3.14,0,4.71,0,.66-.49,1.1-1.11,1.09-.6-.02-1.02-.47-1.02-1.13,0-.69,0-1.37,0-2.06-.03-.01-.06-.03-.09-.04Z"/>
        <path class="cls-4" d="m102.74,11.07c.66,0,1.32,0,1.98,0,.48,0,.86.2,1.05.68.17.44.07.82-.24,1.15-.2.21-.45.3-.73.3-1.59,0-3.18,0-4.78,0-.61,0-1.04-.4-1.04-1.01-.02-1.63-.02-3.25,0-4.88,0-.62.46-1.01,1.09-.99.59,0,1,.42,1.01,1.04,0,.71,0,1.42,0,2.13.04.03.08.05.12.08.73-.77,1.47-1.54,2.2-2.3.4-.42.82-.83,1.23-1.24.51-.51,1.1-.54,1.57-.09.45.44.44,1.07-.06,1.58-1.02,1.04-2.06,2.07-3.09,3.1-.12.12-.26.22-.4.33l.08.12Z"/>
      </g>
      <text class="cls-3" transform="translate(135.79 13.3)"><tspan class="cls-2" x="0" y="0">E</tspan><tspan x="8.04" y="0">spè</tspan><tspan class="cls-1" x="30.6" y="0">c</tspan><tspan x="37.75" y="0">e</tspan></text>
    </g>
  </g>
</svg>